<?xml version="1.0" standalone="no"?>
<!DOCTYPE svg PUBLIC "-//W3C//DTD SVG 20010904//EN"
 "http://www.w3.org/TR/2001/REC-SVG-20010904/DTD/svg10.dtd">
<svg version="1.0" xmlns="http://www.w3.org/2000/svg"
 width="1063.000000pt" height="1063.000000pt" viewBox="0 0 1063.000000 1063.000000"
 preserveAspectRatio="xMidYMid meet">
<g transform="translate(0.000000,1063.000000) scale(0.100000,-0.100000)"
fill="#000000" stroke="none">
<path d="M2788 10336 c-1 -2 -61 -6 -133 -10 -71 -3 -139 -8 -150 -10 -11 -2
-45 -7 -76 -10 -66 -8 -79 -10 -179 -32 -14 -3 -37 -7 -52 -10 -14 -3 -71 -18
-125 -34 -410 -120 -776 -336 -1077 -636 -115 -115 -170 -181 -304 -359 -71
-96 -252 -431 -252 -468 0 -7 -4 -17 -9 -22 -23 -26 -117 -332 -136 -445 -3
-19 -8 -42 -10 -50 -7 -23 -23 -145 -32 -235 -13 -139 -7 -444 11 -540 2 -11
7 -42 10 -70 13 -88 16 -103 51 -239 50 -196 136 -418 220 -567 19 -33 35 -63
35 -65 0 -3 8 -17 19 -32 10 -15 42 -65 72 -111 29 -46 58 -89 64 -95 5 -6 23
-29 40 -51 16 -22 34 -45 40 -51 5 -6 30 -36 55 -65 180 -216 474 -448 737
-582 235 -120 316 -145 383 -119 40 16 85 73 103 132 9 30 43 141 76 245 33
105 80 258 106 340 84 272 136 435 250 795 59 188 50 230 -69 312 -210 142
-310 329 -302 560 4 99 4 104 32 188 43 132 161 274 285 343 222 123 495 104
694 -48 346 -265 326 -795 -40 -1033 -27 -18 -58 -38 -68 -45 -10 -6 -28 -30
-39 -51 -26 -51 -21 -94 27 -241 20 -60 38 -117 40 -125 2 -8 42 -139 90 -290
47 -151 106 -340 131 -420 58 -186 151 -481 170 -542 25 -77 77 -126 142 -133
40 -4 134 31 289 107 122 60 333 187 398 240 11 9 49 40 85 69 201 163 409
401 552 634 172 281 306 636 344 915 2 19 7 46 9 60 20 105 28 470 12 620 -16
163 -61 370 -113 529 -30 90 -117 297 -152 361 -71 130 -154 267 -183 304 -5
6 -45 58 -90 115 -139 178 -331 361 -512 489 -85 60 -213 142 -221 142 -3 0
-29 14 -58 31 -109 64 -340 158 -513 207 -77 23 -242 57 -320 67 -27 4 -61 9
-75 11 -14 2 -77 6 -140 10 -63 3 -120 7 -127 9 -6 2 -13 2 -15 1z"/>
<path d="M6195 10109 c-105 -32 -180 -97 -229 -199 l-31 -65 0 -1955 0 -1955
27 -56 c48 -96 125 -165 225 -201 56 -19 86 -19 1970 -19 1740 0 1918 1 1969
16 107 31 184 97 236 203 l33 67 0 1950 0 1950 -34 67 c-40 81 -110 149 -189
186 l-57 26 -1931 2 c-1817 1 -1935 0 -1989 -17z"/>
<path d="M848 4755 c-104 -28 -193 -103 -242 -205 l-31 -65 0 -1955 0 -1955
28 -56 c51 -102 135 -175 236 -205 48 -14 245 -16 1960 -15 1048 0 1917 2
1930 5 127 27 216 97 274 215 l32 66 1 1930 c1 2095 4 1975 -53 2072 -33 58
-104 120 -171 151 l-57 27 -1930 1 c-1498 1 -1941 -2 -1977 -11z"/>
<path d="M6208 4754 c-122 -31 -227 -133 -262 -255 -15 -50 -16 -242 -14
-1990 l3 -1934 26 -52 c55 -108 126 -171 235 -208 45 -15 209 -17 1964 -16
1879 0 1916 0 1978 19 116 37 203 125 245 247 7 20 11 656 12 1950 2 2077 5
1976 -51 2071 -36 61 -115 129 -182 156 l-57 22 -1925 1 c-1489 1 -1936 -1
-1972 -11z"/>
</g>
</svg>
