<svg xmlns="http://www.w3.org/2000/svg" viewBox="0 0 789 264"><defs><style>.a{fill:#2f9e41;}.b{fill:#c8191e;}</style></defs><path d="M329.82,211.46q0,14.85-7.51,23.36t-20.89,8.51q-13.68,0-21.1-8.36t-7.43-23.59q0-15.12,7.45-23.43t21.16-8.32q13.33,0,20.83,8.47T329.82,211.46Zm-49.31,0q0,12.57,5.35,19.07T301.42,237q10.27,0,15.53-6.47t5.25-19.09q0-12.48-5.23-18.94t-15.47-6.46q-10.28,0-15.64,6.5T280.51,211.46Z"/><path d="M364.14,243.33a20.13,20.13,0,0,1-8.27-1.67,15.67,15.67,0,0,1-6.29-5.14h-.5a61.81,61.81,0,0,1,.5,7.7v19.09h-7V196.1h5.71l1,6.34h.33a16.34,16.34,0,0,1,6.31-5.5,19.15,19.15,0,0,1,8.25-1.69q9.24,0,14.25,6.31t5,17.69q0,11.43-5.1,17.75T364.14,243.33Zm-1-42.11q-7.11,0-10.29,3.93t-3.26,12.53v1.57q0,9.78,3.26,14t10.46,4.21a10.88,10.88,0,0,0,9.42-4.87q3.4-4.86,3.4-13.42t-3.4-13.31A11.22,11.22,0,0,0,363.13,201.22Z"/><path d="M415.27,243.33q-10.27,0-16.23-6.26t-6-17.4q0-11.22,5.53-17.82t14.83-6.6q8.73,0,13.8,5.73t5.08,15.14v4.44H400.38q.21,8.17,4.12,12.4t11,4.23a37.32,37.32,0,0,0,14.81-3.13v6.27a36.74,36.74,0,0,1-7,2.3A39.18,39.18,0,0,1,415.27,243.33Zm-1.9-42.2a11.48,11.48,0,0,0-8.91,3.64q-3.33,3.64-3.92,10.08H424.8q0-6.65-3-10.18T413.37,201.13Z"/><path d="M476.05,242.48v-30q0-5.68-2.58-8.47t-8.08-2.79q-7.29,0-10.67,3.93t-3.38,13v24.33h-7V196.1H450l1.15,6.34h.33a14.41,14.41,0,0,1,6.06-5.31,19.72,19.72,0,0,1,8.67-1.88q8.38,0,12.62,4t4.23,12.93v30.26Z"/><path d="M556,226q0,8.17-5.93,12.74T534,243.33q-11,0-16.93-2.83v-6.95A45.67,45.67,0,0,0,534.25,237q7.2,0,10.84-2.73a9,9,0,0,0,3.64-7.59,9.75,9.75,0,0,0-1.29-5.27,12,12,0,0,0-4.32-3.79,60.48,60.48,0,0,0-9.21-3.94q-8.62-3.09-12.33-7.32t-3.71-11A13.72,13.72,0,0,1,523.25,184q5.37-4.23,14.22-4.23a41.84,41.84,0,0,1,17,3.38l-2.24,6.27a38.3,38.3,0,0,0-14.9-3.22q-5.71,0-8.93,2.45a8.09,8.09,0,0,0-3.22,6.82,10.46,10.46,0,0,0,1.19,5.27,11.08,11.08,0,0,0,4,3.76,48.51,48.51,0,0,0,8.61,3.79q9.74,3.48,13.4,7.45A14.66,14.66,0,0,1,556,226Z"/><path d="M607.64,219.25q0,11.34-5.71,17.71t-15.79,6.37a20.86,20.86,0,0,1-11-2.92,19.28,19.28,0,0,1-7.45-8.38A29.19,29.19,0,0,1,565,219.25q0-11.34,5.67-17.67t15.75-6.33q9.73,0,15.47,6.47T607.64,219.25Zm-35.34,0q0,8.88,3.56,13.54t10.45,4.66q6.9,0,10.48-4.64t3.57-13.56q0-8.85-3.57-13.44t-10.56-4.59q-6.9,0-10.41,4.53T572.3,219.25Z"/><path d="M626.56,196.1v30.09q0,5.67,2.59,8.46t8.08,2.8q7.28,0,10.65-4t3.36-13V196.1h7v46.38h-5.8l-1-6.22h-.38a14,14,0,0,1-6,5.25,20.18,20.18,0,0,1-8.74,1.82q-8.46,0-12.68-4t-4.21-12.87V196.1Z"/><path d="M694.33,195.25a27.29,27.29,0,0,1,5.54.51l-1,6.51a24.11,24.11,0,0,0-5.08-.63,12.37,12.37,0,0,0-9.63,4.57,16.65,16.65,0,0,0-4,11.39v24.88h-7V196.1H679l.81,8.59h.34a20.39,20.39,0,0,1,6.22-7A14,14,0,0,1,694.33,195.25Z"/><path d="M727.09,243.33q-10.08,0-15.6-6.2T706,219.59q0-11.64,5.61-18t16-6.35a31.71,31.71,0,0,1,6.69.72,22,22,0,0,1,5.25,1.69l-2.16,6a33.3,33.3,0,0,0-5.08-1.55,23.24,23.24,0,0,0-4.87-.61q-14.13,0-14.13,18,0,8.55,3.45,13.12t10.22,4.57a31.32,31.32,0,0,0,11.89-2.49v6.22A25.31,25.31,0,0,1,727.09,243.33Z"/><path d="M769.41,243.33q-10.27,0-16.23-6.26t-5.95-17.4q0-11.22,5.53-17.82t14.83-6.6q8.73,0,13.8,5.73t5.08,15.14v4.44h-32q.22,8.17,4.13,12.4t11,4.23a37.32,37.32,0,0,0,14.81-3.13v6.27a36.74,36.74,0,0,1-7.05,2.3A39.18,39.18,0,0,1,769.41,243.33Zm-1.9-42.2a11.48,11.48,0,0,0-8.91,3.64q-3.33,3.64-3.92,10.08h24.26q0-6.65-3-10.18T767.51,201.13Z"/><path d="M272.84,155.45V61.33h20v94.12Z"/><path d="M336.12,155.45H316.49V61.33h53.95V77.68H336.12V102h31.93v16.29H336.12Z"/><path d="M453.87,90.69q0,15.19-9.5,23.24t-27,8H408.8v33.47H388.85V61.33h30.06q17.13,0,26,7.37T453.87,90.69ZM408.8,105.62h6.57q9.21,0,13.78-3.63t4.57-10.59q0-7-3.83-10.37t-12-3.35H408.8Z"/><path d="M525.84,155.45H471.63V61.33h54.21V77.68H491.59V98.35h31.87V114.7H491.59V139h34.25Z"/><rect class="a" x="138.3" y="7.52" width="107.2" height="107.2" rx="9"/><rect class="a" x="138.3" y="136.16" width="107.2" height="107.2" rx="9"/><rect class="a" x="9.66" y="136.16" width="107.2" height="107.2" rx="9"/><path class="b" d="M62.73,2.64A60.85,60.85,0,0,0,40.9,120.3a3.74,3.74,0,0,0,3-.13,3.85,3.85,0,0,0,2-2.29L57.31,81.42A3.81,3.81,0,0,0,55.52,77,15.23,15.23,0,1,1,70,77a3.8,3.8,0,0,0-1.79,4.47l11.42,36.46a3.84,3.84,0,0,0,2,2.3,3.91,3.91,0,0,0,1.66.38,4,4,0,0,0,1.36-.25A60.85,60.85,0,0,0,62.73,2.64Z"/></svg>