<svg xmlns="http://www.w3.org/2000/svg" viewBox="0 0 255 354"><defs><style>.cls-1{fill:#2f9e41;}.cls-2{fill:#c8191e;}</style></defs><title>Brand IFPE Open Source</title><g id="Logotype_Vertical" data-name="Logotype Vertical"><g id="Typography"><path d="M36.55,327q0,6.83-3.44,10.72t-9.58,3.9q-6.27,0-9.67-3.83T10.45,327q0-6.93,3.42-10.75t9.7-3.81q6.11,0,9.55,3.88T36.55,327Zm-22.61,0c0,3.85.82,6.76,2.46,8.75a8.73,8.73,0,0,0,7.13,3c3.14,0,5.52-1,7.12-3s2.41-4.9,2.41-8.76-.8-6.71-2.4-8.68-4-3-7.09-3-5.53,1-7.17,3S13.94,323.21,13.94,327Z"/><path d="M52.29,341.62a9.2,9.2,0,0,1-3.79-.77,7.15,7.15,0,0,1-2.89-2.36h-.23a27.74,27.74,0,0,1,.23,3.54v8.75H42.39V320H45l.45,2.91h.15a7.56,7.56,0,0,1,2.9-2.52,8.75,8.75,0,0,1,3.78-.78,7.88,7.88,0,0,1,6.53,2.89q2.3,2.9,2.3,8.12t-2.34,8.14A7.88,7.88,0,0,1,52.29,341.62Zm-.47-19.31q-3.26,0-4.71,1.8c-1,1.21-1.47,3.12-1.5,5.75v.72q0,4.47,1.5,6.41t4.79,1.93a5,5,0,0,0,4.32-2.23,10.6,10.6,0,0,0,1.56-6.15,10.21,10.21,0,0,0-1.56-6.11A5.16,5.16,0,0,0,51.82,322.31Z"/><path d="M75.73,341.62a9.79,9.79,0,0,1-7.44-2.87q-2.73-2.88-2.73-8a12.32,12.32,0,0,1,2.54-8.17,8.39,8.39,0,0,1,6.8-3,8,8,0,0,1,6.32,2.63,10.06,10.06,0,0,1,2.33,6.94v2H68.9a8.48,8.48,0,0,0,1.89,5.68,6.54,6.54,0,0,0,5.06,1.94,17.07,17.07,0,0,0,6.79-1.43v2.87a17.59,17.59,0,0,1-3.23,1.06A18.44,18.44,0,0,1,75.73,341.62Zm-.87-19.35a5.28,5.28,0,0,0-4.09,1.67A7.71,7.71,0,0,0,69,328.56H80.1a7.07,7.07,0,0,0-1.36-4.67A4.79,4.79,0,0,0,74.86,322.27Z"/><path d="M103.6,341.23V327.47a5.54,5.54,0,0,0-1.18-3.88,4.85,4.85,0,0,0-3.71-1.28q-3.34,0-4.89,1.8c-1,1.21-1.55,3.19-1.55,6v11.16H89V320h2.63l.52,2.91h.15a6.53,6.53,0,0,1,2.78-2.43,9,9,0,0,1,4-.87q3.84,0,5.78,1.86c1.29,1.23,1.94,3.21,1.94,5.92v13.88Z"/><path d="M140.26,333.68a7,7,0,0,1-2.72,5.84,11.76,11.76,0,0,1-7.37,2.1,18.63,18.63,0,0,1-7.77-1.3v-3.19a21,21,0,0,0,7.88,1.6,8.18,8.18,0,0,0,5-1.26,4.1,4.1,0,0,0,1.67-3.48,4.48,4.48,0,0,0-.59-2.41,5.57,5.57,0,0,0-2-1.74,28.57,28.57,0,0,0-4.22-1.81,13.46,13.46,0,0,1-5.66-3.35,7.45,7.45,0,0,1-1.7-5.07,6.28,6.28,0,0,1,2.47-5.22,10.25,10.25,0,0,1,6.52-1.94,19.3,19.3,0,0,1,7.78,1.55l-1,2.88a17.47,17.47,0,0,0-6.83-1.48,6.59,6.59,0,0,0-4.09,1.13,3.69,3.69,0,0,0-1.48,3.12,4.84,4.84,0,0,0,.54,2.42,5.23,5.23,0,0,0,1.84,1.72,22.09,22.09,0,0,0,3.95,1.74q4.45,1.59,6.14,3.42A6.69,6.69,0,0,1,140.26,333.68Z"/><path d="M163.93,330.58q0,5.19-2.62,8.12a9.24,9.24,0,0,1-7.24,2.92,9.59,9.59,0,0,1-5.06-1.34,8.84,8.84,0,0,1-3.42-3.84,13.45,13.45,0,0,1-1.2-5.86q0-5.2,2.6-8.11a9.21,9.21,0,0,1,7.22-2.9,9,9,0,0,1,7.09,3A11.66,11.66,0,0,1,163.93,330.58Zm-16.2,0a10.1,10.1,0,0,0,1.63,6.21,6.47,6.47,0,0,0,9.6,0q1.64-2.12,1.63-6.21c0-2.71-.54-4.76-1.63-6.17a5.79,5.79,0,0,0-4.85-2.1,5.66,5.66,0,0,0-4.77,2.07C148.27,325.77,147.73,327.83,147.73,330.58Z"/><path d="M172.61,320v13.8a5.54,5.54,0,0,0,1.18,3.88,4.85,4.85,0,0,0,3.71,1.28q3.33,0,4.88-1.82t1.54-6V320h3.22v21.27h-2.66l-.46-2.85h-.18a6.41,6.41,0,0,1-2.74,2.4,9.19,9.19,0,0,1-4,.84c-2.59,0-4.52-.62-5.81-1.85s-1.93-3.19-1.93-5.89V320Z"/><path d="M203.68,319.57a12.25,12.25,0,0,1,2.54.24l-.45,3a11.19,11.19,0,0,0-2.33-.29,5.65,5.65,0,0,0-4.41,2.1,7.67,7.67,0,0,0-1.84,5.22v11.41H194V320h2.66l.37,3.94h.16a9.31,9.31,0,0,1,2.85-3.2A6.41,6.41,0,0,1,203.68,319.57Z"/><path d="M218.7,341.62a9.05,9.05,0,0,1-7.15-2.85q-2.53-2.83-2.54-8t2.57-8.25a9.28,9.28,0,0,1,7.33-2.91,14.64,14.64,0,0,1,3.07.33,9.91,9.91,0,0,1,2.4.78l-1,2.74a13.56,13.56,0,0,0-2.33-.71,10.26,10.26,0,0,0-2.23-.29q-6.48,0-6.48,8.27a9.88,9.88,0,0,0,1.58,6,5.51,5.51,0,0,0,4.69,2.09,14.37,14.37,0,0,0,5.45-1.14v2.85A11.56,11.56,0,0,1,218.7,341.62Z"/><path d="M238.1,341.62a9.79,9.79,0,0,1-7.44-2.87q-2.73-2.88-2.73-8a12.32,12.32,0,0,1,2.54-8.17,8.39,8.39,0,0,1,6.8-3,8,8,0,0,1,6.32,2.63,10.06,10.06,0,0,1,2.33,6.94v2H231.27a8.48,8.48,0,0,0,1.89,5.68,6.54,6.54,0,0,0,5.06,1.94,17.07,17.07,0,0,0,6.79-1.43v2.87a17.59,17.59,0,0,1-3.23,1.06A18.44,18.44,0,0,1,238.1,341.62Zm-.87-19.35a5.28,5.28,0,0,0-4.09,1.67,7.71,7.71,0,0,0-1.79,4.62h11.12a7.07,7.07,0,0,0-1.36-4.67A4.77,4.77,0,0,0,237.23,322.27Z"/><path d="M10.43,301.33V258.17h9.15v43.16Z"/><path d="M39.44,301.33h-9V258.17H55.18v7.5H39.44V276.8H54.08v7.46H39.44Z"/><path d="M93.43,271.63q0,7-4.35,10.66T76.69,286H72.77v15.35H63.62V258.17H77.4q7.86,0,11.94,3.38T93.43,271.63Zm-20.66,6.85h3c2.81,0,4.92-.56,6.31-1.67a5.82,5.82,0,0,0,2.1-4.85,6,6,0,0,0-1.76-4.75q-1.75-1.54-5.5-1.54H72.77Z"/><path d="M126.43,301.33H101.57V258.17h24.86v7.5H110.72v9.47h14.61v7.5H110.72v11.13h15.71Z"/></g><g id="Logomark"><rect class="cls-1" x="138.3" y="7.52" width="107.2" height="107.2" rx="9"/><rect class="cls-1" x="138.3" y="136.16" width="107.2" height="107.2" rx="9"/><rect class="cls-1" x="9.66" y="136.16" width="107.2" height="107.2" rx="9"/><g id="Open_Source_Symbol" data-name="Open Source Symbol"><path class="cls-2" d="M62.73,2.64A60.85,60.85,0,0,0,40.9,120.3a3.74,3.74,0,0,0,3-.13,3.85,3.85,0,0,0,2-2.29L57.31,81.42A3.81,3.81,0,0,0,55.52,77,15.23,15.23,0,1,1,70,77a3.8,3.8,0,0,0-1.79,4.47l11.42,36.46a3.84,3.84,0,0,0,2,2.3,3.91,3.91,0,0,0,1.66.38,4,4,0,0,0,1.36-.25A60.85,60.85,0,0,0,62.73,2.64Z"/></g></g></g></svg>